<?xml version="1.0" encoding="iso-8859-1"?>
<!-- Generator: Adobe Illustrator 19.0.0, SVG Export Plug-In . SVG Version: 6.00 Build 0)  -->
<svg version="1.1" id="Capa_1" xmlns="http://www.w3.org/2000/svg" xmlns:xlink="http://www.w3.org/1999/xlink" x="0px" y="0px"
	 viewBox="0 0 490.667 490.667" style="enable-background:new 0 0 490.667 490.667;" xml:space="preserve">
<path style="fill:#FFC107;" d="M245.333,0C109.839,0,0,109.839,0,245.333s109.839,245.333,245.333,245.333
	s245.333-109.839,245.333-245.333C490.514,109.903,380.764,0.153,245.333,0z"/>
<path style="fill:#455A64;" d="M320,202.667c0.154-41.237-33.149-74.791-74.386-74.946c-41.237-0.154-74.791,33.149-74.946,74.386
	c-0.085,22.65,10.116,44.114,27.732,58.351l-16.853,89.6c-1.072,5.793,2.754,11.358,8.547,12.43
	c0.629,0.116,1.267,0.176,1.906,0.178h106.667c5.891-0.003,10.664-4.781,10.661-10.673c0-0.664-0.063-1.326-0.186-1.978
	l-16.853-89.6C309.777,246.342,319.963,225.115,320,202.667z"/>
<g>
</g>
<g>
</g>
<g>
</g>
<g>
</g>
<g>
</g>
<g>
</g>
<g>
</g>
<g>
</g>
<g>
</g>
<g>
</g>
<g>
</g>
<g>
</g>
<g>
</g>
<g>
</g>
<g>
</g>
</svg>
