<?xml version="1.0" encoding="iso-8859-1"?>
<!-- Generator: Adobe Illustrator 19.0.0, SVG Export Plug-In . SVG Version: 6.00 Build 0)  -->
<svg version="1.1" id="Layer_1" xmlns="http://www.w3.org/2000/svg" xmlns:xlink="http://www.w3.org/1999/xlink" x="0px" y="0px"
	 viewBox="0 0 508 508" style="enable-background:new 0 0 508 508;" xml:space="preserve">
<circle style="fill:#FFD05B;" cx="254" cy="254" r="254"/>
<polygon style="fill:#E6E9EE;" points="151.7,409.1 63.3,375.7 144.6,179.3 197.1,189.9 "/>
<polygon style="fill:#FFFFFF;" points="151.7,409.1 254,375.7 254,179.3 197.1,189.9 "/>
<polygon style="fill:#E6E9EE;" points="356.3,409.1 254,375.7 254,179.3 310.9,189.9 "/>
<polygon style="fill:#FFFFFF;" points="356.3,409.1 444.7,375.7 363.4,179.3 310.9,189.9 "/>
<path style="fill:#FF7058;" d="M248.4,162.8c0,43.2-78.2,148-78.2,148S91.9,206,91.9,162.8s35-78.2,78.2-78.2
	S248.4,119.6,248.4,162.8z"/>
<circle style="fill:#FFFFFF;" cx="170.1" cy="162.8" r="56.1"/>
<polygon style="fill:#FF7058;" points="170.1,119.9 182.8,145.6 211.1,149.7 190.6,169.7 195.5,197.8 170.1,184.5 144.8,197.8 
	149.7,169.7 129.2,149.7 157.5,145.6 "/>
<g>
</g>
<g>
</g>
<g>
</g>
<g>
</g>
<g>
</g>
<g>
</g>
<g>
</g>
<g>
</g>
<g>
</g>
<g>
</g>
<g>
</g>
<g>
</g>
<g>
</g>
<g>
</g>
<g>
</g>
</svg>
