<?xml version="1.0" encoding="iso-8859-1"?>
<!-- Generator: Adobe Illustrator 22.1.0, SVG Export Plug-In . SVG Version: 6.00 Build 0)  -->
<svg version="1.1" id="Layer_1" xmlns="http://www.w3.org/2000/svg" xmlns:xlink="http://www.w3.org/1999/xlink" x="0px" y="0px"
	 viewBox="0 0 48 48" style="enable-background:new 0 0 48 48;" xml:space="preserve">
<path style="display:none;fill:#FF4081;" d="M39.6,17c0,8.6-15.6,29.6-15.6,29.6S8.4,25.7,8.4,17S15.4,1.4,24,1.4S39.6,8.4,39.6,17z
	"/>
<path style="display:none;fill:#536DFE;" d="M39.6,17c0,8.6-15.6,29.6-15.6,29.6S8.4,25.7,8.4,17S15.4,1.4,24,1.4S39.6,8.4,39.6,17z
	"/>
<path style="fill:#FFD740;" d="M39.6,17c0,8.6-15.6,29.6-15.6,29.6S8.4,25.7,8.4,17S15.4,1.4,24,1.4S39.6,8.4,39.6,17z"/>
<circle style="fill:#FFFFFF;" cx="24" cy="17" r="7.2"/>
<polygon style="display:none;fill:#536DFE;" points="24,8.4 26.5,13.6 32.2,14.4 28.1,18.4 29.1,24 24,21.4 18.9,24 19.9,18.4 15.8,14.4
	21.5,13.6 "/>
</svg>
